<svg width="39" height="42" viewBox="0 0 39 42" fill="none" xmlns="http://www.w3.org/2000/svg">
<path d="M18.676 9.48379C18.676 9.48379 26.98 8.22379 29.584 5.36779C31.18 3.61579 29.572 1.10779 27.268 1.69579C25.492 2.13979 22.744 3.78379 18.676 9.48379Z" stroke="#008E91" stroke-width="2" stroke-miterlimit="10"/>
<path d="M20.524 9.48379C20.524 9.48379 12.22 8.22379 9.61601 5.36779C8.02001 3.61579 9.62801 1.10779 11.932 1.69579C13.696 2.13979 16.444 3.78379 20.524 9.48379Z" stroke="#008E91" stroke-width="2" stroke-miterlimit="10"/>
<path d="M34.54 41.2357H4.64799C2.992 41.2357 1.64799 39.8917 1.64799 38.2357V11.0077C1.64799 9.50769 2.87199 8.28369 4.37199 8.28369H34.804C36.304 8.28369 37.528 9.50769 37.528 11.0077V38.2357C37.54 39.8797 36.184 41.2357 34.54 41.2357Z" fill="#4CDADA"/>
<path d="M38.776 18.3518V11.2598C38.776 9.60377 37.432 8.25977 35.776 8.25977H3.412C1.756 8.25977 0.412003 9.60377 0.412003 11.2598V18.3518H38.776Z" fill="#00BEBE"/>
<path d="M19.564 8.12793V41.2359" stroke="#008E91" stroke-width="2" stroke-miterlimit="10"/>
</svg>
