<svg width="48" height="48" viewBox="0 0 48 48" fill="none" xmlns="http://www.w3.org/2000/svg">
<path d="M7.23602 14.772V40.524C7.23602 41.988 8.34002 43.188 9.69602 43.188H20.064V33.924C20.064 33.408 20.448 32.988 20.928 32.988H27.06C27.54 32.988 27.924 33.408 27.924 33.924V43.188H38.292C39.648 43.188 40.752 42 40.752 40.524V14.772H7.23602Z" fill="#6197FD"/>
<path d="M45.444 17.112L43.884 10.332C43.476 8.53205 41.892 7.24805 40.08 7.24805H31.2H16.8V7.28405C16.8 7.27205 16.788 7.24805 16.764 7.24805H7.89602C6.08401 7.24805 4.51202 8.52005 4.09202 10.332L2.53201 17.112C2.38801 17.856 2.40001 18.324 2.43601 18.78C2.44801 18.852 2.46001 18.912 2.47201 18.984C3.03601 22.5 6.01202 25.2 9.60002 25.2C13.392 25.2 16.5 22.212 16.788 18.408C17.088 22.212 20.184 25.2 23.976 25.2C27.768 25.2 30.876 22.212 31.164 18.408C31.464 22.212 34.56 25.2 38.352 25.2C41.184 25.2 43.62 23.532 44.808 21.12C45.156 20.496 45.396 19.716 45.516 18.78C45.588 18.336 45.564 17.964 45.444 17.112Z" fill="#0061FF"/>
</svg>
