<svg width="49" height="48" viewBox="0 0 49 48" fill="none" xmlns="http://www.w3.org/2000/svg">
<path d="M44.9258 11.9011H11.9429L11.5471 9.84971C11.1513 7.87026 9.40019 6.43066 7.38524 6.43066H3.46327C2.65969 6.43066 2.00003 7.07848 2.00003 7.89426C2.00003 8.69803 2.65969 9.35785 3.46327 9.35785H7.38524C8.02091 9.35785 8.57262 9.81372 8.69256 10.4256L14.0178 37.8019C14.2337 38.8816 15.1812 39.6734 16.2846 39.6734H41.0878C41.8914 39.6734 42.551 39.0136 42.551 38.2098C42.551 37.4061 41.8914 36.7462 41.0878 36.7462H16.7884L16.0807 33.1352H41.8314C43.1027 33.1352 44.1942 32.2355 44.446 30.9878L47.5524 15.0923C47.8643 13.4247 46.6049 11.9011 44.9258 11.9011Z" fill="#9490FF"/>
<path d="M15.985 45.5997C18.4359 45.5997 20.4227 43.6124 20.4227 41.1609C20.4227 38.7095 18.4359 36.7222 15.985 36.7222C13.5341 36.7222 11.5473 38.7095 11.5473 41.1609C11.5473 43.6124 13.5341 45.5997 15.985 45.5997Z" fill="#495057"/>
<path d="M41.1715 45.5997C43.6224 45.5997 45.6092 43.6124 45.6092 41.1609C45.6092 38.7095 43.6224 36.7222 41.1715 36.7222C38.7207 36.7222 36.7338 38.7095 36.7338 41.1609C36.7338 43.6124 38.7207 45.5997 41.1715 45.5997Z" fill="#495057"/>
<path d="M28.5421 21.5946C33.8413 21.5946 38.1372 17.2977 38.1372 11.9972C38.1372 6.69678 33.8413 2.3999 28.5421 2.3999C23.243 2.3999 18.9471 6.69678 18.9471 11.9972C18.9471 17.2977 23.243 21.5946 28.5421 21.5946Z" fill="#4F45F0"/>
<path d="M31.7323 16.1C31.5044 16.1 31.2765 16.0161 31.0966 15.8361L27.9063 12.633C27.7264 12.465 27.6424 12.2371 27.6424 11.9972V8.00229C27.6424 7.51043 28.0502 7.10254 28.542 7.10254C29.0337 7.10254 29.4415 7.51043 29.4415 8.00229V11.6253L32.38 14.5645C32.7278 14.9124 32.7278 15.4882 32.38 15.8361C32.2001 16.0041 31.9722 16.1 31.7323 16.1Z" fill="white"/>
</svg>
