<svg width="80" height="80" viewBox="0 0 80 80" xmlns="http://www.w3.org/2000/svg" xmlns:xlink="http://www.w3.org/1999/xlink">
    <defs>
        <path id="c9urawxr2a" d="M0 0h80v80H0z"/>
    </defs>
    <g fill="none" fill-rule="evenodd">
        <g>
            <mask id="6vzkw9sy5b" fill="#fff">
                <use xlink:href="#c9urawxr2a"/>
            </mask>
            <path d="M80 40c0 22.092-17.909 40-40 40S0 62.092 0 40 17.909 0 40 0s40 17.908 40 40" fill="#E9ECEF" mask="url(#6vzkw9sy5b)"/>
        </g>
        <path d="m22.305 26.914.23 2.121c-.01.29.049.559.181.807.085.261.228.485.433.676.19.203.413.348.674.432.249.132.519.191.806.18l.557-.075c.355-.099.663-.279.924-.537l.328-.425c.19-.326.285-.68.287-1.058-.078-.706-.154-1.415-.23-2.121.01-.29-.05-.559-.18-.807a1.57 1.57 0 0 0-.434-.675 1.553 1.553 0 0 0-.674-.433 1.584 1.584 0 0 0-.807-.18c-.185.026-.372.05-.557.075a2.083 2.083 0 0 0-.925.538l-.326.424c-.19.327-.285.679-.287 1.058M53.882 27.328v2.522c0 .538.233 1.102.613 1.482.19.203.414.348.674.433.25.13.518.19.807.18.542-.024 1.104-.202 1.481-.613.376-.41.614-.914.614-1.482v-2.522c0-.536-.234-1.1-.614-1.48a1.576 1.576 0 0 0-.674-.434 1.573 1.573 0 0 0-.807-.18c-.542.024-1.104.202-1.481.614-.376.409-.613.913-.613 1.48M36.297 25.945c-.743 4.335-1.484 8.673-2.225 13.01-.184 1.075.285 2.307 1.463 2.576 1.014.23 2.378-.309 2.576-1.462l2.225-13.011c.184-1.075-.285-2.308-1.463-2.577-1.015-.23-2.38.308-2.576 1.464M45.158 50.386c-.16-.33-.101-.477-.045-.806-.111.175-.125.201-.042.077a.37.37 0 0 1 .203-.178c-.22.117-.235.138-.047.064a3.43 3.43 0 0 1-.393.116c-.082.02-.659.1-.265.057-1.115.124-2.24.19-3.36.285l-6.877.577c-1.089.092-2.148.897-2.095 2.094.048 1.056.926 2.192 2.095 2.093l8.84-.74c1.45-.123 3.041-.13 4.287-.98 1.6-1.093 2.163-3.028 1.316-4.772-.48-.99-1.966-1.333-2.866-.752-1.013.654-1.263 1.807-.75 2.865" fill="#CDD3D8"/>
    </g>
</svg>
