<svg width="21" height="20" viewBox="0 0 21 20" fill="none" xmlns="http://www.w3.org/2000/svg">
<path fill-rule="evenodd" clip-rule="evenodd" d="M5.10044 9.05H5.75044C7.54537 9.05 9.00044 10.5051 9.00044 12.3C9.00044 14.0949 7.54537 15.55 5.75044 15.55C4.87593 15.5627 4.03422 15.2174 3.42051 14.5942C2.80681 13.9711 2.47443 13.1242 2.50044 12.25V12C2.50044 8 5.00044 5 10.0004 3.5L10.5004 4.05C10.5004 4.05 6.05044 5.05 5.10044 9.05ZM13.6004 9C14.5504 5 19.0004 4 19.0004 4L18.5004 3.5C13.5004 5 11.0004 8 11.0004 12V12.25C10.9854 13.1165 11.323 13.9519 11.9358 14.5647C12.5485 15.1775 13.384 15.515 14.2504 15.5C16.0454 15.5 17.5004 14.0449 17.5004 12.25C17.5004 10.4551 16.0454 9 14.2504 9H13.6004Z" fill="#212529"/>
</svg>
